<svg id="visual" viewBox="0 0 900 600" width="900" height="600" xmlns="http://www.w3.org/2000/svg" xmlns:xlink="http://www.w3.org/1999/xlink" version="1.1"><g stroke-width="1" stroke-linejoin="bevel"><path d="M400 283L371 173L334 268Z" fill="#782593" stroke="#782593"></path><path d="M371 173L312 166L334 268Z" fill="#3c1540" stroke="#3c1540"></path><path d="M400 283L489 238L371 173Z" fill="#601e70" stroke="#601e70"></path><path d="M489 238L404 95L371 173Z" fill="#240f24" stroke="#240f24"></path><path d="M371 173L404 95L312 166Z" fill="#301232" stroke="#301232"></path><path d="M228 84L239 206L312 166Z" fill="#48184f" stroke="#48184f"></path><path d="M312 166L239 206L334 268Z" fill="#190918" stroke="#190918"></path><path d="M334 268L425 382L400 283Z" fill="#080007" stroke="#080007"></path><path d="M400 283L516 338L489 238Z" fill="#48184f" stroke="#48184f"></path><path d="M261 404L425 382L334 268Z" fill="#3c1540" stroke="#3c1540"></path><path d="M404 95L292 91L312 166Z" fill="#48184f" stroke="#48184f"></path><path d="M425 382L516 338L400 283Z" fill="#190918" stroke="#190918"></path><path d="M239 206L216 314L334 268Z" fill="#8429a6" stroke="#8429a6"></path><path d="M431 527L460 405L425 382Z" fill="#541b5f" stroke="#541b5f"></path><path d="M425 382L460 405L516 338Z" fill="#240f24" stroke="#240f24"></path><path d="M262 0L228 84L292 91Z" fill="#8429a6" stroke="#8429a6"></path><path d="M292 91L228 84L312 166Z" fill="#541b5f" stroke="#541b5f"></path><path d="M239 206L127 270L216 314Z" fill="#080007" stroke="#080007"></path><path d="M216 314L261 404L334 268Z" fill="#601e70" stroke="#601e70"></path><path d="M630 204L519 71L489 238Z" fill="#601e70" stroke="#601e70"></path><path d="M489 238L519 71L404 95Z" fill="#48184f" stroke="#48184f"></path><path d="M404 95L435 0L292 91Z" fill="#8429a6" stroke="#8429a6"></path><path d="M519 71L435 0L404 95Z" fill="#3c1540" stroke="#3c1540"></path><path d="M609 421L602 312L516 338Z" fill="#301232" stroke="#301232"></path><path d="M516 338L602 312L489 238Z" fill="#601e70" stroke="#601e70"></path><path d="M116 173L127 270L239 206Z" fill="#301232" stroke="#301232"></path><path d="M216 314L161 398L261 404Z" fill="#782593" stroke="#782593"></path><path d="M602 312L630 204L489 238Z" fill="#541b5f" stroke="#541b5f"></path><path d="M519 71L492 0L435 0Z" fill="#782593" stroke="#782593"></path><path d="M588 0L492 0L519 71Z" fill="#080007" stroke="#080007"></path><path d="M435 0L262 0L292 91Z" fill="#8429a6" stroke="#8429a6"></path><path d="M228 84L116 173L239 206Z" fill="#3c1540" stroke="#3c1540"></path><path d="M68 128L116 173L228 84Z" fill="#080007" stroke="#080007"></path><path d="M117 360L161 398L216 314Z" fill="#6d2181" stroke="#6d2181"></path><path d="M630 204L625 91L519 71Z" fill="#190918" stroke="#190918"></path><path d="M232 502L261 495L261 404Z" fill="#080007" stroke="#080007"></path><path d="M261 404L261 495L425 382Z" fill="#190918" stroke="#190918"></path><path d="M127 270L117 360L216 314Z" fill="#080007" stroke="#080007"></path><path d="M161 398L232 502L261 404Z" fill="#601e70" stroke="#601e70"></path><path d="M0 301L117 360L127 270Z" fill="#601e70" stroke="#601e70"></path><path d="M460 405L609 421L516 338Z" fill="#080007" stroke="#080007"></path><path d="M602 312L680 274L630 204Z" fill="#48184f" stroke="#48184f"></path><path d="M539 533L609 421L460 405Z" fill="#601e70" stroke="#601e70"></path><path d="M261 495L431 527L425 382Z" fill="#301232" stroke="#301232"></path><path d="M710 363L680 274L602 312Z" fill="#6d2181" stroke="#6d2181"></path><path d="M630 204L693 219L625 91Z" fill="#6d2181" stroke="#6d2181"></path><path d="M262 0L174 0L228 84Z" fill="#782593" stroke="#782593"></path><path d="M198 600L232 502L69 515Z" fill="#48184f" stroke="#48184f"></path><path d="M261 495L387 600L431 527Z" fill="#3c1540" stroke="#3c1540"></path><path d="M625 91L588 0L519 71Z" fill="#3c1540" stroke="#3c1540"></path><path d="M680 274L693 219L630 204Z" fill="#080007" stroke="#080007"></path><path d="M625 91L663 0L588 0Z" fill="#541b5f" stroke="#541b5f"></path><path d="M174 0L68 128L228 84Z" fill="#48184f" stroke="#48184f"></path><path d="M116 173L0 192L127 270Z" fill="#190918" stroke="#190918"></path><path d="M431 527L539 533L460 405Z" fill="#240f24" stroke="#240f24"></path><path d="M539 533L607 487L609 421Z" fill="#240f24" stroke="#240f24"></path><path d="M609 421L710 363L602 312Z" fill="#240f24" stroke="#240f24"></path><path d="M702 512L710 363L609 421Z" fill="#48184f" stroke="#48184f"></path><path d="M680 274L773 197L693 219Z" fill="#48184f" stroke="#48184f"></path><path d="M723 78L663 0L625 91Z" fill="#080007" stroke="#080007"></path><path d="M277 600L387 600L261 495Z" fill="#301232" stroke="#301232"></path><path d="M431 527L534 600L539 533Z" fill="#48184f" stroke="#48184f"></path><path d="M174 0L82 0L68 128Z" fill="#190918" stroke="#190918"></path><path d="M693 219L723 78L625 91Z" fill="#3c1540" stroke="#3c1540"></path><path d="M773 197L723 78L693 219Z" fill="#190918" stroke="#190918"></path><path d="M0 107L0 192L68 128Z" fill="#8429a6" stroke="#8429a6"></path><path d="M68 128L0 192L116 173Z" fill="#3c1540" stroke="#3c1540"></path><path d="M198 600L277 600L232 502Z" fill="#6d2181" stroke="#6d2181"></path><path d="M232 502L277 600L261 495Z" fill="#541b5f" stroke="#541b5f"></path><path d="M232 502L161 398L69 515Z" fill="#782593" stroke="#782593"></path><path d="M0 192L0 301L127 270Z" fill="#6d2181" stroke="#6d2181"></path><path d="M82 0L0 107L68 128Z" fill="#301232" stroke="#301232"></path><path d="M825 275L773 197L680 274Z" fill="#48184f" stroke="#48184f"></path><path d="M387 600L534 600L431 527Z" fill="#301232" stroke="#301232"></path><path d="M539 533L611 600L607 487Z" fill="#782593" stroke="#782593"></path><path d="M607 487L702 512L609 421Z" fill="#6d2181" stroke="#6d2181"></path><path d="M69 515L161 398L117 360Z" fill="#3c1540" stroke="#3c1540"></path><path d="M0 301L0 401L117 360Z" fill="#8429a6" stroke="#8429a6"></path><path d="M0 401L69 515L117 360Z" fill="#080007" stroke="#080007"></path><path d="M611 600L702 512L607 487Z" fill="#541b5f" stroke="#541b5f"></path><path d="M710 363L825 275L680 274Z" fill="#8429a6" stroke="#8429a6"></path><path d="M534 600L611 600L539 533Z" fill="#301232" stroke="#301232"></path><path d="M702 512L781 402L710 363Z" fill="#240f24" stroke="#240f24"></path><path d="M82 0L0 0L0 107Z" fill="#6d2181" stroke="#6d2181"></path><path d="M781 402L825 275L710 363Z" fill="#240f24" stroke="#240f24"></path><path d="M773 197L827 103L723 78Z" fill="#8429a6" stroke="#8429a6"></path><path d="M900 173L827 103L773 197Z" fill="#541b5f" stroke="#541b5f"></path><path d="M723 78L820 0L663 0Z" fill="#541b5f" stroke="#541b5f"></path><path d="M0 401L0 521L69 515Z" fill="#782593" stroke="#782593"></path><path d="M69 515L70 600L198 600Z" fill="#240f24" stroke="#240f24"></path><path d="M0 521L70 600L69 515Z" fill="#301232" stroke="#301232"></path><path d="M827 103L820 0L723 78Z" fill="#541b5f" stroke="#541b5f"></path><path d="M702 512L831 531L781 402Z" fill="#6d2181" stroke="#6d2181"></path><path d="M900 309L900 173L825 275Z" fill="#3c1540" stroke="#3c1540"></path><path d="M611 600L714 600L702 512Z" fill="#080007" stroke="#080007"></path><path d="M825 275L900 173L773 197Z" fill="#240f24" stroke="#240f24"></path><path d="M827 103L900 83L820 0Z" fill="#601e70" stroke="#601e70"></path><path d="M900 309L825 275L781 402Z" fill="#080007" stroke="#080007"></path><path d="M0 521L0 600L70 600Z" fill="#301232" stroke="#301232"></path><path d="M900 414L900 309L781 402Z" fill="#782593" stroke="#782593"></path><path d="M714 600L767 600L702 512Z" fill="#080007" stroke="#080007"></path><path d="M900 173L900 83L827 103Z" fill="#301232" stroke="#301232"></path><path d="M767 600L831 531L702 512Z" fill="#601e70" stroke="#601e70"></path><path d="M831 531L900 414L781 402Z" fill="#080007" stroke="#080007"></path><path d="M900 83L900 0L820 0Z" fill="#541b5f" stroke="#541b5f"></path><path d="M900 600L900 526L831 531Z" fill="#601e70" stroke="#601e70"></path><path d="M831 531L900 526L900 414Z" fill="#601e70" stroke="#601e70"></path><path d="M767 600L900 600L831 531Z" fill="#190918" stroke="#190918"></path></g></svg>